# xmcd
#
# Track frame offsets: 
#        150
#        23293
#        37205
#        47735
#        65775
#        72298
#        86823
#        101668
#        113698
#        128815
#        143785
#        155290
#        169665
#        188658
#        200913
#        213116
#        229608
#        246546
#        264363
#        277675
#        294470
#        302180
#        306427
#
# Disc length: 4410 seconds
#
# Revision: 0
# Processed by: cddbd v1.4PL0 Copyright (c) Steve Scherf et al.
# Submitted via: ExactAudioCopy v0.95a3
#
DISCID=4f113817
DTITLE=ALMIR SATER - ALMIR SATER
DYEAR=1900
DGENRE=
TTITLE0=Faixa01
TTITLE1=Faixa02
TTITLE2=Faixa03
TTITLE3=Faixa04
TTITLE4=Faixa05
TTITLE5=Faixa06
TTITLE6=Faixa07
TTITLE7=Faixa08
TTITLE8=Faixa09
TTITLE9=Faixa10
TTITLE10=Faixa11
TTITLE11=Faixa12
TTITLE12=Faixa13
TTITLE13=Faixa14
TTITLE14=Faixa15
TTITLE15=Faixa16
TTITLE16=Faixa17
TTITLE17=Faixa18
TTITLE18=Faixa19
TTITLE19=Faixa20
TTITLE20=Faixa21
TTITLE21=Faixa22
TTITLE22=Faixa23
EXTD=
EXTT0=
EXTT1=
EXTT2=
EXTT3=
EXTT4=
EXTT5=
EXTT6=
EXTT7=
EXTT8=
EXTT9=
EXTT10=
EXTT11=
EXTT12=
EXTT13=
EXTT14=
EXTT15=
EXTT16=
EXTT17=
EXTT18=
EXTT19=
EXTT20=
EXTT21=
EXTT22=
PLAYORDER=
